<?xml version="1.0" encoding="UTF-8"?>
<svg id="Capa_1" data-name="Capa 1" xmlns="http://www.w3.org/2000/svg" viewBox="0 0 503.43 146">
  <defs>
    <style>
      .cls-1 {
        fill: #033529;
        stroke-width: 0px;
      }
    </style>
  </defs>
  <path class="cls-1" d="M76.91,72.82c-8.05-9.06-19.79-14.77-32.87-14.77-20.34-.51-20.34-30.34,0-30.85,6.95,0,12.82,4.59,14.75,10.91.96,6.9,6.8,12.4,14.12,12.37,9.89.17,16.94-10.31,13.27-19.43C71.63-16.68.6-6.96.08,43.63c0,24.2,19.63,43.96,43.97,43.97,19.11.47,19.12,28.52,0,28.99-8.66.06-15.55-7.76-14.37-16.34.49-8.41-6.36-15.55-14.77-15.52-9.43-.09-15.69,8.46-14.83,17.29,0,24.28,19.69,43.97,43.97,43.97,37.3.84,58.02-46.24,32.87-73.17Z"/>
  <g>
    <path class="cls-1" d="M128.8,50.53c-7.11,0-13.04,5.01-14.47,11.69-.13,1.03-.23,2.07-.29,3.12h-.03v63.81h.03c0,.13-.02.26-.03.39.21,7.99,6.74,14.41,14.79,14.41,7.54,0,13.75-5.64,14.67-12.93.02-.39.05-.78.09-1.16.01-.24.04-.47.04-.72h0v-63.81h0c0-8.18-6.63-14.81-14.81-14.81Z"/>
    <path class="cls-1" d="M128.8,34.7c7.54,0,13.75-5.64,14.67-12.93.02-.39.05-.78.09-1.16.01-.24.04-.47.04-.72,0-8.18-6.63-14.81-14.81-14.81-7.11,0-13.04,5.01-14.47,11.69-.15,1.16-.26,2.33-.31,3.51.21,7.99,6.74,14.41,14.79,14.41Z"/>
  </g>
  <g>
    <path class="cls-1" d="M218.2,43.94c-5.5,0-10.09,3.88-11.19,9.04-.11.89-.2,1.8-.24,2.71.16,6.18,5.21,11.15,11.44,11.15,5.83,0,10.64-4.36,11.35-10,.01-.3.04-.6.07-.89,0-.18.03-.37.03-.55,0-6.32-5.13-11.45-11.45-11.45Z"/>
    <path class="cls-1" d="M319.48,54.32c-.12-1.31-.42-2.61-.98-3.8-1.83-3.89-5.78-6.58-10.36-6.58-6.32,0-11.45,5.13-11.45,11.45,0,.19.02.37.03.55.04.29.06.59.07.89.71,5.64,5.52,10,11.35,10s10.86-4.57,11.39-10.4c.05-.5.04-1,0-1.5-.02-.21-.03-.42-.05-.63Z"/>
    <path class="cls-1" d="M355.87,46.86h-.01c-.25-26.55-25.34-44.26-43.76-44.42-.14,0-.28,0-.41,0-.07,0-.13,0-.19,0-.14,0-.28.02-.42.02-.24,0-.49.02-.73.04-.16.01-.32.02-.47.04-14.02,1.15-31.27,13.53-37.97,17.43-2.02,1.18-5.85,1.66-8.73,1.86-2.89-.2-6.71-.69-8.73-1.86-6.7-3.9-23.95-16.28-37.97-17.43-.16-.02-.32-.02-.47-.04-.25-.02-.49-.03-.73-.04-.14,0-.28-.02-.42-.02-.07,0-.13,0-.19,0-.14,0-.28,0-.41,0-18.41.15-43.51,17.86-43.76,44.42h-.01v82.28h.03c0,.13-.02.26-.03.39.21,7.99,6.74,14.41,14.79,14.41,7.54,0,13.75-5.64,14.67-12.93.02-.39.05-.78.09-1.16.01-.24.04-.47.04-.72h0V50.08c.81-9.61,10.41-16.08,15.22-16.08,18.3,0,24.77,23.65,28,29.93,1.61,3.14,5.09,4.19,7.85,4.5v.03h.34c2.02.19,3.59,0,3.59,0h15.67c.31,0,.63,0,.94.03.57.04,1.78.1,3.23-.03h.96v-.12c2.64-.4,5.73-1.51,7.23-4.42,3.23-6.28,9.69-29.93,28-29.93,4.69,0,13.96,6.16,15.15,15.4.06.45.07.9.07,1.35v78.39h0c0,.24.02.48.04.72.05.38.08.77.1,1.16.92,7.29,7.13,12.93,14.67,12.93,8.04,0,14.57-6.42,14.79-14.41,0-.13-.02-.26-.03-.39h.03V46.86Z"/>
  </g>
  <path class="cls-1" d="M503.43,58.05c0-38.15-39.92-56.71-67.43-56.71-21.82,0-29.88,8.22-29.88,8.22h0c-3.22,2.11-5.59,5.42-6.42,9.3-.15,1.16-.26,2.33-.31,3.51.21,7.99,6.74,14.41,14.79,14.41,2.31,0,4.49-.53,6.43-1.47h0s18.5-7.29,36.49,1.47c14.39,7.01,16.49,21.15,16.74,26.83v9.59c0,16.51-10.8,39.39-37.69,39.39-14.06,0-26.99-10.07-26.6-25.98.21-8.48,9.38-17.97,9.38-17.97h0c2.33-2.29,3.91-5.32,4.34-8.72.02-.39.05-.78.09-1.16.01-.24.04-.47.04-.72,0-8.18-6.63-14.81-14.81-14.81-2.1,0-4.09.45-5.89,1.23h0s-22.74,9.02-22.74,42.52,31.37,55.37,56.19,55.37c16.88,0,30.62-8.8,37.69-14.43v1.2h.03c0,.13-.02.26-.03.39.21,7.99,6.74,14.41,14.79,14.41,7.54,0,13.75-5.64,14.67-12.93.02-.39.05-.78.09-1.16.01-.24.04-.47.04-.72h0V58.05Z"/>
</svg>