<?xml version="1.0" encoding="UTF-8"?>
<svg xmlns="http://www.w3.org/2000/svg" version="1.1" xmlns:xlink="http://www.w3.org/1999/xlink" viewBox="0 0 2000 2000">
  <defs>
    <style>
      .cls-1, .cls-2 {
        fill: #4eae33;
      }

      .cls-1, .cls-2, .cls-3 {
        stroke-width: 0px;
      }

      .cls-2 {
        opacity: .5;
      }

      .cls-3 {
        fill: #03352a;
      }

      .cls-4 {
        display: none;
      }
    </style>
  </defs>
  <g id="Capa_1" data-name="Capa 1" class="cls-4">
    <image width="186" height="317" transform="translate(653.5 205.6) scale(4.4)" xlink:href="logo_sima-1.png"/>
  </g>
  <g id="Capa_7" data-name="Capa 7" class="cls-4">
    <path class="cls-2" d="M1116.1,1126c18.7,0,35.5-8.2,47.1-21.2-11.5-13-28.4-21.2-47.1-21.2s-35.5,8.2-47.1,21.2c11.5,13,28.4,21.2,47.1,21.2Z"/>
    <path class="cls-2" d="M1116.1,1126c18.7,0,35.5-8.2,47.1-21.2-11.5-13-28.4-21.2-47.1-21.2s-35.5,8.2-47.1,21.2c11.5,13,28.4,21.2,47.1,21.2Z"/>
    <path class="cls-2" d="M1094,1061.6c0-12.2,9.9-22.1,22.1-22.1s18.4,6.6,21.1,15.6c-.1-.9-.2-1.8-.2-2.7,0-11.3,9.1-20.4,20.4-20.4s16,5.4,19,13c-7.8-26-31.8-45-60.4-45s-63,28.2-63,63,6,30.7,15.9,41.8c11.5-13,28.4-21.2,47.1-21.2-12.2,0-22.1-9.9-22.1-22.1Z"/>
    <path class="cls-1" d="M1157.5,1032c-11.3,0-20.4,9.1-20.4,20.4s0,1.8.2,2.7c.3,1.1.6,2.3.8,3.5,2.6,8.3,10.3,14.2,19.5,14.2s20.4-9.1,20.4-20.4,0-1.8-.2-2.7c-.3-1.6-.8-3.2-1.2-4.7-3-7.6-10.4-13-19-13Z"/>
    <path class="cls-2" d="M1163.2,1104.8c-11.5,13-28.4,21.2-47.1,21.2,11.5,0,20.8,9.3,20.8,20.8s-9.3,20.8-20.8,20.8-20.8-9.3-20.8-20.8,0-.7,0-1c-1.3,10.4-10.2,18.5-21,18.5s-20.9-9.2-21.2-20.6c0,1,0,2,0,3,0,34.8,28.2,63,63,63s63-28.2,63-63-6-30.7-15.9-41.8Z"/>
    <path class="cls-1" d="M1074.4,1164.3c10.8,0,19.7-8.1,21-18.5,0-.6,0-1.1.1-1.7,0-.3,0-.7,0-1,0-11.7-9.5-21.2-21.2-21.2s-18.7,7.2-20.7,16.7c-.2,1.7-.4,3.3-.5,5,.3,11.5,9.7,20.6,21.2,20.6Z"/>
  </g>
  <g id="Capa_2" data-name="Capa 2">
    <path class="cls-3" d="M804.4,1424.6c-11.5-13-28.4-21.2-47.1-21.2-29.1-.7-29.1-43.5,0-44.2,10,0,18.4,6.6,21.1,15.6,1.4,9.9,9.7,17.8,20.2,17.7,14.2.2,24.3-14.8,19-27.8-20.8-68.4-122.6-54.5-123.4,18,0,34.7,28.1,63,63,63,27.4.7,27.4,40.9,0,41.5-12.4,0-22.3-11.1-20.6-23.4.7-12-9.1-22.3-21.2-22.2-13.5-.1-22.5,12.1-21.3,24.8,0,34.8,28.2,63,63,63,53.4,1.2,83.1-66.3,47.1-104.8Z"/>
  </g>
  <g id="Capa_3" data-name="Capa 3">
    <g>
      <path class="cls-3" d="M878.8,1392.7c-10.2,0-18.7,7.2-20.7,16.7-.2,1.5-.3,3-.4,4.5h0v91.4h0c0,.2,0,.4,0,.6.3,11.5,9.7,20.6,21.2,20.6s19.7-8.1,21-18.5c0-.6,0-1.1.1-1.7,0-.3,0-.7,0-1h0v-91.4h0c0-11.7-9.5-21.2-21.2-21.2Z"/>
      <path class="cls-3" d="M878.8,1370c10.8,0,19.7-8.1,21-18.5,0-.6,0-1.1.1-1.7,0-.3,0-.7,0-1,0-11.7-9.5-21.2-21.2-21.2s-18.7,7.2-20.7,16.7c-.2,1.7-.4,3.3-.5,5,.3,11.5,9.7,20.6,21.2,20.6Z"/>
    </g>
  </g>
  <g id="Capa_4" data-name="Capa 4">
    <g>
      <path class="cls-3" d="M1006.9,1383.2c-7.9,0-14.5,5.6-16,13-.2,1.3-.3,2.6-.3,3.9.2,8.9,7.5,16,16.4,16s15.2-6.3,16.3-14.3c0-.4,0-.9.1-1.3,0-.3,0-.5,0-.8,0-9.1-7.3-16.4-16.4-16.4Z"/>
      <path class="cls-3" d="M1152,1398.1c-.2-1.9-.6-3.7-1.4-5.4-2.6-5.6-8.3-9.4-14.8-9.4s-16.4,7.3-16.4,16.4,0,.5,0,.8c0,.4,0,.8.1,1.3,1,8.1,7.9,14.3,16.3,14.3s15.6-6.5,16.3-14.9c0-.7,0-1.4,0-2.1,0-.3,0-.6,0-.9Z"/>
      <path class="cls-3" d="M1204.1,1387.4h0c-.4-38-36.3-63.4-62.7-63.6-.2,0-.4,0-.6,0,0,0-.2,0-.3,0-.2,0-.4,0-.6,0-.3,0-.7,0-1.1,0-.2,0-.5,0-.7,0-20.1,1.7-44.8,19.4-54.4,25-2.9,1.7-8.4,2.4-12.5,2.7-4.1-.3-9.6-1-12.5-2.7-9.6-5.6-34.3-23.3-54.4-25-.2,0-.5,0-.7,0-.4,0-.7,0-1.1,0-.2,0-.4,0-.6,0s-.2,0-.3,0c-.2,0-.4,0-.6,0-26.4.2-62.3,25.6-62.7,63.6h0v117.9h0c0,.2,0,.4,0,.6.3,11.5,9.7,20.6,21.2,20.6s19.7-8.1,21-18.5c0-.6,0-1.1.1-1.7,0-.3,0-.7,0-1h0v-113.3c1.2-13.8,14.9-23,21.8-23,26.2,0,35.5,33.9,40.1,42.9,2.3,4.5,7.3,6,11.2,6.5h0s.5,0,.5,0c2.9.3,5.1,0,5.1,0h22.5c.4,0,.9,0,1.3,0,.8,0,2.6.1,4.6,0h1.4v-.2c3.8-.6,8.2-2.2,10.4-6.3,4.6-9,13.9-42.9,40.1-42.9s20,8.8,21.7,22.1c0,.6.1,1.3.1,1.9v112.3h0c0,.3,0,.7,0,1,0,.5.1,1.1.1,1.7,1.3,10.4,10.2,18.5,21,18.5s20.9-9.2,21.2-20.6c0-.2,0-.4,0-.6h0v-117.9Z"/>
    </g>
  </g>
  <g id="Capa_6" data-name="Capa 6">
    <path class="cls-3" d="M1415.5,1403.4c0-54.7-57.2-81.3-96.6-81.3s-42.8,11.8-42.8,11.8h0c-4.6,3-8,7.8-9.2,13.3-.2,1.7-.4,3.3-.5,5,.3,11.5,9.7,20.6,21.2,20.6s6.4-.8,9.2-2.1h0s26.5-10.5,52.3,2.1c20.6,10,23.6,30.3,24,38.4v13.7c0,23.7-15.5,56.4-54,56.4s-38.7-14.4-38.1-37.2c.3-12.1,13.4-25.7,13.4-25.7h0c3.3-3.3,5.6-7.6,6.2-12.5,0-.6,0-1.1.1-1.7,0-.3,0-.7,0-1,0-11.7-9.5-21.2-21.2-21.2s-5.9.6-8.4,1.8h0s-32.6,12.9-32.6,60.9,45,79.3,80.5,79.3,43.9-12.6,54-20.7v1.7h0c0,.2,0,.4,0,.6.3,11.5,9.7,20.6,21.2,20.6s19.7-8.1,21-18.5c0-.6,0-1.1.1-1.7,0-.3,0-.7,0-1h0v-101.9Z"/>
  </g>
  <g id="Capa_5" data-name="Capa 5" class="cls-4">
    <path class="cls-1" d="M958.3,1205.9c10.8,0,19.7-8.1,21-18.5,0-.6,0-1.1.1-1.7,0-.3,0-.7,0-1,0-11.7-9.5-21.2-21.2-21.2s-18.7,7.2-20.7,16.7c-.2,1.7-.4,3.3-.5,5,.3,11.5,9.7,20.6,21.2,20.6Z"/>
    <path class="cls-1" d="M1000.6,1045.6c10.8,0,19.7-8.1,21-18.5,0-.6,0-1.1.1-1.7,0-.3,0-.7,0-1,0-11.7-9.5-21.2-21.2-21.2s-18.7,7.2-20.7,16.7c-.2,1.7-.4,3.3-.5,5,.3,11.5,9.7,20.6,21.2,20.6Z"/>
    <path class="cls-1" d="M1005.5,1095.4c8.4,0,15.2-6.3,16.3-14.3,0-.4,0-.9.1-1.3,0-.3,0-.5,0-.8,0-9.1-7.3-16.4-16.4-16.4s-14.5,5.6-16,13c-.2,1.3-.3,2.6-.3,3.9.2,8.9,7.5,16,16.4,16Z"/>
    <path class="cls-1" d="M958.3,1088c10.8,0,19.7-8.1,21-18.5,0-.6,0-1.1.1-1.7,0-.3,0-.7,0-1,0-11.7-9.5-21.2-21.2-21.2s-18.7,7.2-20.7,16.7c-.2,1.7-.4,3.3-.5,5,.3,11.5,9.7,20.6,21.2,20.6Z"/>
    <rect class="cls-1" x="937.1" y="1066.8" width="42.4" height="117.9"/>
    <rect class="cls-1" x="1052.6" y="1031.1" width="35.4" height="66.6"/>
    <path class="cls-1" d="M978.6,1092.3s-41.5,13.7-41.5-24.9,36.2-64,62.7-64.2c20.6-.2,47.5,19.2,57.6,25.1,5,2.9,17.9,2.9,17.9,2.9l-17,66.6s-12.7,1.6-16.9-6.5c-4.6-9-13.9-42.9-40.1-42.9s-21.9,10.1-21.9,24.9-.8,19-.8,19Z"/>
  </g>
</svg>